<?xml version="1.0" encoding="UTF-8" standalone="no"?>
<svg
   xml:lang="en"
   lang="en"
   width="719.27734"
   height="142.20947"
   viewBox="0 0 719.27736 142.20947"
   role="img"
   aria-labelledby="svg-title svg-desc"
   version="1.1"
   id="svg125"
   xml:space="preserve"
   xmlns="http://www.w3.org/2000/svg"
   xmlns:svg="http://www.w3.org/2000/svg"><title
     id="svg-title">MathJSLab: from grammar to result</title><desc
     id="svg-desc">Vector flow showing grammar, example code, the abstract syntax tree, and recursive evaluation by Evaluator.</desc><defs
     id="defs25"><!-- Logotipo original do MathJSLab, sem alterar nenhuma geometria.
         A única remoção é o elemento <text> que continha a equação. --><!-- Ícones vetoriais reutilizáveis --></defs><style
     id="style25">
    .ui { font-family: &quot;Segoe UI&quot;, Arial, sans-serif; }
    .mono { font-family: &quot;Cascadia Mono&quot;, Consolas, &quot;DejaVu Sans Mono&quot;, monospace; }
    .panel { fill: #ffffff; stroke-width: 2; }
    .panel-title { font-size: 26px; font-weight: 700; }
    .step-number { fill: #ffffff; font-size: 27px; font-weight: 700; text-anchor: middle; dominant-baseline: middle; }
    .node-title { font-size: 18px; font-weight: 700; text-anchor: middle; }
    .node-sub { font-size: 17px; font-weight: 600; text-anchor: middle; }
    .footer-text { fill: #0b1733; font-size: 17px; }
    .grammar-key { fill: #0b4acb; font-weight: 700; }
    .grammar-text { fill: #101820; }
    .stack-text { fill: #171923; font-size: 13px; }
    .small-label { font-size: 15px; fill: #1a2232; }
  </style><!-- CABEÇALHO --><!-- SETAS PRINCIPAIS --><!-- PAINEL 1: GRAMÁTICA --><!-- PAINEL 2: CÓDIGO EXEMPLO --><!-- PAINEL 3: AST --><!-- PAINEL 4: EVALUATOR --><!-- RODAPÉ EXPLICATIVO --><style
     id="style1">
.fill-symbol {
  fill: hsl(120, 52%, 16%);
}

.stroke-fill-panel {
  stroke: hsl(120, 100%, 25%);
  fill: hsl(120, 52%, 88%);
}

.stroke-trace {
  fill: none;
  stroke: hsl(0, 0%, 24%);
}

.fill-trace {
  fill: hsl(0, 0%, 24%);
}

@media (prefers-color-scheme: dark) {
  .fill-symbol {
    fill: hsl(120, 52%, 88%);
  }
  .stroke-fill-panel {
    stroke: hsl(120, 100%, 25%);
    fill: hsl(120, 52%, 16%);
  }
  .stroke-trace {
    stroke: hsl(0, 0%, 92%);
  }
  .fill-trace {
    fill: hsl(0, 0%, 92%);
  }
}
  </style><style
     id="style1-5">
.fill-symbol {
  fill: hsl(120, 52%, 16%);
}

.stroke-fill-panel {
  stroke: hsl(120, 100%, 25%);
  fill: hsl(120, 52%, 88%);
}

.stroke-trace {
  fill: none;
  stroke: hsl(0, 0%, 24%);
}

.fill-trace {
  fill: hsl(0, 0%, 24%);
}

@media (prefers-color-scheme: dark) {
  .fill-symbol {
    fill: hsl(120, 52%, 88%);
  }
  .stroke-fill-panel {
    stroke: hsl(120, 100%, 25%);
    fill: hsl(120, 52%, 16%);
  }
  .stroke-trace {
    stroke: hsl(0, 0%, 92%);
  }
  .fill-trace {
    fill: hsl(0, 0%, 92%);
  }
}
  </style><g
     id="g128"
     transform="translate(-420,-4.9999975)"><text
       x="583"
       y="102"
       font-size="82px"
       font-weight="800"
       fill="#061a42"
       letter-spacing="-1.8"
       id="text25"
       style="font-family:'Segoe UI', Arial, sans-serif">MathJSLab</text><text
       x="592"
       y="141"
       font-size="27px"
       fill="#454545"
       data-i18n="subtitle"
       id="text26"
       style="font-family:'Segoe UI', Arial, sans-serif">Grammar → example code → AST → Evaluator</text><g
       id="g125"
       transform="translate(-468.91532,-653.23434)"><g
         id="g126"
         transform="matrix(0.22222222,0,0,0.22222222,380.8908,150.20982)"><g
           id="g127"><circle
             style="fill:none;stroke:none;stroke-opacity:1"
             cx="2601.1104"
             cy="2601.1104"
             r="315"
             id="circle1" /><circle
             class="stroke-fill-panel"
             style="stroke-width:14px"
             cx="2601.1104"
             cy="2601.1104"
             r="288"
             id="circle2" /><path
             class="fill-symbol"
             d="m 2523.1104,2380.1104 c 11,-9 18,-12 38,-12 h 133 v 27 h -48 c -1,9 -1,11 -2,22 -1,11 -3,50 -3,50 0,11 2,15 5,21 4,8 12,12 20,12 12,0 20,-14 20,-24 h 10 c -1,16 -1,19 -8,31 -7,12 -22,24 -36,24 -23,0 -38,-22 -38,-57 0,-7 3,-53 8,-79 h -42 c -2,22 -4,46 -7,66 -3,20 -5,29 -6,37 -4,22 -14,34 -29,34 -12,0 -21,-8 -21,-18 0,-7 3,-12 15,-21 13,-11 18,-17 19,-26 l 10,-71 h -35 c -6,0 -12,0 -20,8 2,-10 11,-18 17,-24 z"
             id="path2" /><text
             class="fill-symbol"
             style="font-style:italic;font-size:76px;font-family:'Times New Roman'"
             x="2439.1104"
             y="2709.1104"
             id="text6">ax<tspan
   style="font-size:65%;baseline-shift:super"
   id="tspan2">3</tspan><tspan
   style="font-style:normal;font-weight:bold;font-size:80%;font-family:'Times New Roman'"
   id="tspan3">+</tspan>bx<tspan
   style="font-size:65%;baseline-shift:super"
   id="tspan4">2</tspan><tspan
   style="font-style:normal;font-weight:bold;font-size:80%;font-family:'Times New Roman'"
   id="tspan5">+</tspan>cx<tspan
   style="font-style:normal;font-weight:bold;font-size:80%;font-family:'Times New Roman'"
   id="tspan6">+</tspan>d</text><path
             class="stroke-trace"
             style="stroke-width:14px;stroke-linecap:round"
             d="m 2412.1104,2421.1104 v 355 h 387"
             id="path6-2" /><path
             class="stroke-trace"
             style="stroke-width:14px"
             d="m 2412.1104,2727.1104 h 50 v 49"
             id="path7-7" /><circle
             class="fill-trace"
             style="stroke:none"
             cx="2438.1104"
             cy="2750.1104"
             r="4.0999999"
             id="circle7" /><path
             class="stroke-trace"
             style="stroke-width:14px;stroke-linecap:round"
             d="m 2412.1104,2727.1104 c 14,-51 77,-168 126,-168 53,0 84,57 126,57 42,0 135,-127 154,-162"
             id="path8-6" /></g></g></g></g></svg>
